<svg xmlns="http://www.w3.org/2000/svg" viewBox="0 0 64 48"><defs><style>.cls-1{fill:#2273c9;}.cls-2{fill:#fff;}.cls-3{fill:#e34f4f;}</style></defs><g id="Layer_2" data-name="Layer 2"><g id="Layer_1-2" data-name="Layer 1"><rect class="cls-1" width="64" height="48"/><polygon class="cls-2" points="0 41.31 54.69 0 64 0 64 8 8 48 0 48 0 41.31"/><polygon class="cls-2" points="64 41.31 64 48 56 48 0 6.69 0 0 9.38 0 64 41.31"/><polygon class="cls-3" points="64 4 4 48 0 48 0 44 60 0 64 0 64 4"/><polygon class="cls-3" points="0 4 60 48 64 48 64 44 4 0 0 0 0 4"/><rect class="cls-2" x="25.25" y="0.16" width="13.5" height="47.69"/><rect class="cls-2" y="17.25" width="64" height="13.5"/><rect class="cls-3" x="28.03" width="7.94" height="48"/><rect class="cls-3" y="20.03" width="64" height="7.94"/></g></g></svg>