<?xml version="1.0" encoding="utf-8"?>
<!-- Generator: Adobe Illustrator 25.1.0, SVG Export Plug-In . SVG Version: 6.00 Build 0)  -->
<svg version="1.1" id="Layer_1" xmlns="http://www.w3.org/2000/svg" xmlns:xlink="http://www.w3.org/1999/xlink" x="0px" y="0px"
	 viewBox="0 0 64 48" enable-background="new 0 0 64 48" xml:space="preserve">
<rect y="39.27" fill="#FFFFFF" width="64" height="4.36"/>
<rect y="43.64" fill="#E34F4F" width="64" height="4.36"/>
<rect y="34.91" fill="#E34F4F" width="64" height="4.36"/>
<rect y="30.55" fill="#FFFFFF" width="64" height="4.36"/>
<rect y="26.18" fill="#E34F4F" width="64" height="4.36"/>
<rect y="21.82" fill="#FFFFFF" width="64" height="4.36"/>
<rect y="17.45" fill="#E34F4F" width="64" height="4.36"/>
<rect y="13.09" fill="#FFFFFF" width="64" height="4.36"/>
<rect y="8.73" fill="#E34F4F" width="64" height="4.36"/>
<rect y="4.36" fill="#FFFFFF" width="64" height="4.36"/>
<rect y="0" fill="#E34F4F" width="64" height="4.36"/>
<g>
	<rect y="0" fill="#2874B9" width="26.18" height="26.18"/>
	<rect x="3.74" y="3.74" fill="#FFFFFF" width="3.74" height="3.74"/>
	<rect x="3.74" y="11.22" fill="#FFFFFF" width="3.74" height="3.74"/>
	<rect x="11.22" y="3.74" fill="#FFFFFF" width="3.74" height="3.74"/>
	<rect x="18.7" y="3.74" fill="#FFFFFF" width="3.74" height="3.74"/>
	<rect x="11.22" y="11.22" fill="#FFFFFF" width="3.74" height="3.74"/>
	<rect x="18.7" y="11.22" fill="#FFFFFF" width="3.74" height="3.74"/>
	<rect x="3.74" y="18.7" fill="#FFFFFF" width="3.74" height="3.74"/>
	<rect x="11.22" y="18.7" fill="#FFFFFF" width="3.74" height="3.74"/>
	<rect x="18.7" y="18.7" fill="#FFFFFF" width="3.74" height="3.74"/>
</g>
</svg>
